<svg xmlns="http://www.w3.org/2000/svg" viewBox="0 0 64 64" role="img" aria-label="GM">
  <rect width="64" height="64" rx="16" fill="#406b9b" />
  <path
    fill="#f7f8f4"
    d="M17.4 20.3c4.1-4 10.9-4.8 16.4-1.8l-3 5.2c-3.2-1.6-6.8-1.2-9 1-3.8 3.7-3.8 10.3 0 14 2.3 2.2 5.7 2.7 8.3 1.4v-5.3h-6.2v-5.7h12.4v14.2c-5.5 4.8-13.8 4.5-18.9-.5-6.2-6.1-6.2-16.3 0-22.5Z"
  />
  <path
    fill="#f7f8f4"
    d="M39.2 18.1h5.6l4.2 8.4 4.2-8.4h5.6v27.8h-6.1V30.2L49 37.4l-3.7-7.2v15.7h-6.1V18.1Z"
  />
</svg>
